<svg width="500" height="186" viewBox="0 0 500 186" fill="none" xmlns="http://www.w3.org/2000/svg">
<path d="M91.2641 92.2838V107.636H119.541V92.2838H91.2641ZM166.577 134.273H91.2641V146.403H119.257C120.461 141.037 124.768 137.186 130.257 137.186C135.731 137.186 140.053 141.034 141.257 146.403H168.921C168.682 142.002 167.878 137.934 166.577 134.273ZM91.2641 171.843V183.842H119.541V176.061C123.901 180.959 129.636 185.48 139.971 185.48C149.475 185.48 157.876 180.439 163.163 171.843H91.2641ZM141.197 153.051C139.915 158.274 135.641 162.017 130.25 162.017C124.873 162.017 120.611 158.207 119.317 153.051H91.2566V165.188H166.341C167.684 161.527 168.543 157.459 168.858 153.051H141.197ZM145.224 114.296C143.44 113.918 141.601 113.731 139.713 113.731C137.63 113.731 135.757 113.933 134.052 114.296C127.296 115.754 123.209 119.751 119.538 123.767V114.296H91.2603V127.61H163.425C159.17 120.585 152.758 115.851 145.224 114.296Z" fill="white"/>
<path d="M178.956 92.2838V107.636H208.224V92.2838H178.956ZM179.457 153.051V165.188H207.727V153.051H179.457ZM179.457 171.843V182.788L207.727 183.846V171.847H179.457V171.843ZM179.457 134.273V146.403H207.727V134.273H179.457ZM179.457 114.296V127.61H207.727V114.296H179.457Z" fill="white"/>
<path d="M263.665 153.051C263.014 157.897 259.5 160.645 255.69 160.645C251.88 160.645 248.679 157.897 248.096 153.051H219.688V160.507C219.688 162.144 219.785 163.692 219.987 165.184H292.069V153.047H263.665V153.051ZM221.666 171.843C225.042 180.469 232.613 185.48 242.989 185.48C252.583 185.48 259.429 180.331 263.785 174.689V183.842H292.069V171.843H221.666ZM263.785 134.273V146.403H292.069V134.273H263.785ZM219.684 134.273V146.403H247.976V134.273H219.684ZM263.785 115.361V127.61H292.069V115.361H263.785ZM219.684 115.361V127.61H247.976V115.361H219.684Z" fill="#0098D4"/>
<path d="M304.273 171.843V183.842H332.543V171.843H304.273ZM304.273 153.051V165.188H332.543V153.051H304.273ZM376.4 134.273H304.273V146.403H332.636C333.205 141.407 336.772 138.562 340.649 138.562C344.53 138.562 347.772 141.407 348.287 146.403H376.651V138.682C376.655 137.156 376.557 135.694 376.4 134.273ZM348.37 171.843V183.842H376.655V171.843H348.37ZM348.37 153.051V165.188H376.655V153.051H348.37ZM353.357 113.731C343.763 113.731 336.91 119.257 332.539 124.885V115.361H304.269V127.61H374.766C371.45 118.831 363.826 113.731 353.357 113.731Z" fill="#0098D4"/>
<path d="M454.753 115.361H424.236L432.076 127.61H461.382L454.753 115.361ZM469.82 115.361L463.079 127.61H492.048L499.851 115.361H469.82ZM431.912 171.843L424.236 183.842H454.252L460.858 171.843H431.912ZM480.267 153.051H443.944L436.17 165.188H488.04L480.267 153.051ZM492.295 171.843H462.832L469.454 183.842H499.971L492.295 171.843ZM436.35 134.273L444.115 146.403H480.087L487.808 134.273H436.35Z" fill="#0098D4"/>
<path d="M145.224 114.299H134.048C135.75 113.933 137.63 113.727 139.709 113.727C141.605 113.727 143.44 113.918 145.224 114.299Z" fill="white"/>
<path d="M388.615 115.361V127.61H416.885V115.361H388.615ZM388.615 153.051V165.188H416.885V153.051H388.615ZM388.615 171.843V183.842H416.885V171.843H388.615ZM388.615 134.273V146.403H416.885V134.273H388.615Z" fill="#0098D4"/>
<path d="M416.885 92.2838H388.615V108.747H416.885V92.2838Z" fill="white"/>
<path d="M65.174 26.0166C68.2773 31.0942 71.5638 38.8154 73.1753 45.0521C74.7306 51.3449 76.3159 57.8584 76.8207 64.4727C77.3778 71.0834 77.4077 77.7576 77.1534 84.3907C76.8394 91.0237 76.1439 97.6007 75.2616 104.122C74.7306 107.356 74.2558 110.609 73.6015 113.798C73.2874 115.395 73.007 117.01 72.6593 118.596L71.5974 123.344C70.902 126.515 70.0159 129.596 69.2345 132.722C68.382 135.814 67.4734 138.876 66.5462 141.923C62.7512 154.064 58.2234 165.745 53.0413 176.828C57.1204 164.922 61.0126 152.957 64.3514 140.738L66.7331 131.525C67.436 128.418 68.2436 125.352 68.8568 122.211C70.2327 115.989 71.3544 109.678 72.2929 103.325C74.1362 90.6237 75.0746 77.6566 74.4764 64.7494C74.1848 58.2996 72.9547 52.1638 71.7657 45.8897C70.5805 39.6267 67.7165 31.599 65.174 26.0166Z" fill="white"/>
<path d="M36.1115 23.5563C36.1115 23.5563 37.5734 17.3645 38.9157 15.8165C40.3439 14.1713 42.2508 12.7991 47.9264 20.939C52.7795 27.8974 58.8702 25.9942 60.1451 25.882C61.4089 25.7736 63.0727 27.0785 63.7308 26.1213C63.899 25.8746 64.0149 25.6053 64.1084 25.3511C64.5271 24.2368 65.6563 22.7786 66.6957 22.1953C79.9389 14.7995 92.8979 12.2121 102.802 9.71064C102.802 9.71064 98.8017 7.04843 83.7002 9.26569C75.2055 10.5108 72.0909 6.26697 65.1777 1.7315C58.8216 -2.44128 41.1665 -0.818532 31.5837 26.0166C31.5837 26.0166 1.49298 54.0782 10.4364 146.399C10.4364 146.399 11.6217 160.278 12.6798 168.983C13.4276 175.164 3.13436 180.522 3.13436 180.522C3.13436 180.522 -3.71905 184.104 2.74925 183.543C8.94462 183.008 19.5519 180.585 21.8364 180.353C21.956 180.342 22.0719 180.335 22.1953 180.331C23.2347 180.297 28.0168 179.837 26.7381 181.681C25.7585 183.094 24.7452 184.018 24.1956 184.463C23.8105 184.773 23.889 185.401 24.3526 185.569C24.9621 185.79 26.1324 185.958 28.3346 185.895C33.8457 185.734 58.7618 185.91 58.7618 185.91C58.7618 185.91 62.0333 186.201 59.2815 180.929C56.5558 175.717 44.352 174.031 39.4428 178.084C39.3082 178.196 39.1587 178.293 38.9904 178.346C38.31 178.555 35.7675 178.245 34.0738 174.857C33.4718 173.653 33.0045 172.703 32.6455 171.963C31.8903 170.408 31.6547 168.818 31.5126 166.975L31.6136 148.373C31.6173 147.943 31.5351 147.521 31.3743 147.121L28.9029 140.963C28.4056 139.725 28.701 138.308 29.6507 137.373L36.1638 130.957C37.6669 129.476 38.5418 127.487 38.624 125.382C38.8708 119.22 38.4072 105.587 31.1948 91.9623C31.1948 91.9623 42.6957 109.813 38.6203 131.974C38.6203 131.974 35.8086 139.882 37.4724 142.436C39.1363 144.99 43.3313 141.998 46.0457 137.762C48.7602 133.529 55.7071 120.873 55.9501 108.41C56.1931 95.9481 52.0355 80.6965 52.0355 80.6965C52.0355 80.6965 52.0056 77.6193 53.3927 71.9097C54.7424 66.346 58.186 56.8152 58.186 56.8152C58.186 56.8152 62.0183 47.3928 58.586 36.3701C58.586 36.3701 57.5466 34.1341 58.586 33.6929C59.6254 33.2554 59.0646 31.5355 58.1486 30.8176C57.2288 30.0997 50.8428 27.5833 51.2017 29.6211C51.5606 31.6589 49.8033 30.4586 49.8033 30.4586C49.8033 30.4586 42.2171 25.4259 36.5078 24.3901C36.5115 24.3939 35.4871 24.2107 36.1115 23.5563Z" fill="white"/>
<path d="M37.6594 18.202C37.6594 18.202 35.2852 24.7753 41.3759 25.1492C45.971 25.4296 56.2268 25.9643 58.7842 30.0286C62.9605 36.6655 59.2515 53.1285 59.2515 53.1285L33.9467 33.1508L34.6496 23.6984L37.6594 18.202Z" fill="white"/>
<path d="M87.2484 12.1036C87.2484 12.1036 74.1847 15.2407 69.4737 18.647C68.7184 19.1929 67.7463 19.391 66.8303 19.2191C65.8133 19.0284 64.7888 18.0413 67.006 16.7139C71.2459 14.1676 87.2484 12.1036 87.2484 12.1036Z" fill="white"/>
<path d="M61.1322 9.84148C62.078 9.84148 62.8446 9.07477 62.8446 8.12899C62.8446 7.18321 62.078 6.4165 61.1322 6.4165C60.1865 6.4165 59.4198 7.18321 59.4198 8.12899C59.4198 9.07477 60.1865 9.84148 61.1322 9.84148Z" fill="white"/>
</svg>
