<?xml version="1.0" encoding="utf-8"?>
<!-- Generator: Adobe Illustrator 25.0.1, SVG Export Plug-In . SVG Version: 6.00 Build 0)  -->
<svg version="1.1" id="Layer_1" xmlns="http://www.w3.org/2000/svg" xmlns:xlink="http://www.w3.org/1999/xlink" x="0px" y="0px"
	 viewBox="0 0 1337.28 497.24" style="enable-background:new 0 0 1337.28 497.24;" xml:space="preserve">
<style type="text/css">
	.st0{fill:#0098D4;}
	.st1{fill:#FFFFFF;}
</style>
<g>
	<g>
		<path d="M244.16,246.83v41.06h75.63v-41.06H244.16z M445.59,359.13H244.16v32.44h74.87c3.22-14.35,14.74-24.65,29.42-24.65
			c14.64,0,26.2,10.29,29.42,24.65h73.99C451.22,379.8,449.07,368.92,445.59,359.13z M244.16,459.61v32.09h75.63v-20.81
			c11.66,13.1,27,25.19,54.64,25.19c25.42,0,47.89-13.48,62.03-36.47H244.16z M377.71,409.35c-3.43,13.97-14.86,23.98-29.28,23.98
			c-14.38,0-25.78-10.19-29.24-23.98h-75.05v32.46h200.82c3.59-9.79,5.89-20.67,6.73-32.46H377.71z M388.48,305.7
			c-4.77-1.01-9.69-1.51-14.74-1.51c-5.57,0-10.58,0.54-15.14,1.51c-18.07,3.9-29,14.59-38.82,25.33V305.7h-75.63v35.61h193.01
			C425.78,322.52,408.63,309.86,388.48,305.7z"/>
		<path d="M478.7,246.83v41.06h78.28v-41.06H478.7z M480.04,409.35v32.46h75.61v-32.46H480.04z M480.04,459.61v29.27l75.61,2.83
			v-32.09H480.04z M480.04,359.13v32.44h75.61v-32.44H480.04z M480.04,305.7v35.61h75.61V305.7H480.04z"/>
		<path class="st0" d="M705.26,409.35c-1.74,12.96-11.14,20.31-21.33,20.31s-18.75-7.35-20.31-20.31h-75.98v19.94
			c0,4.38,0.26,8.52,0.8,12.51h192.79v-32.46H705.26z M592.93,459.61c9.03,23.07,29.28,36.47,57.03,36.47
			c25.66,0,43.97-13.77,55.62-28.86v24.48h75.65v-32.09H592.93z M705.58,359.13v32.44h75.65v-32.44H705.58z M587.63,359.13v32.44
			h75.67v-32.44H587.63z M705.58,308.55v32.76h75.65v-32.76H705.58z M587.63,308.55v32.76h75.67v-32.76H587.63z"/>
		<path class="st0" d="M813.87,459.61v32.09h75.61v-32.09H813.87z M813.87,409.35v32.46h75.61v-32.46H813.87z M1006.78,359.13
			H813.87v32.44h75.86c1.52-13.36,11.06-20.97,21.43-20.97c10.38,0,19.05,7.61,20.43,20.97h75.86v-20.65
			C1007.46,366.84,1007.2,362.93,1006.78,359.13z M931.81,459.61v32.09h75.65v-32.09H931.81z M931.81,409.35v32.46h75.65v-32.46
			H931.81z M945.15,304.19c-25.66,0-43.99,14.78-55.68,29.83v-25.47h-75.61v32.76h188.55C993.54,317.83,973.15,304.19,945.15,304.19
			z"/>
		<path class="st0" d="M1216.34,308.55h-81.62l20.97,32.76h78.38L1216.34,308.55z M1256.64,308.55l-18.03,32.76h77.48l20.87-32.76
			H1256.64z M1155.25,459.61l-20.53,32.09H1215l17.67-32.09H1155.25z M1284.58,409.35h-97.15l-20.79,32.46h138.73L1284.58,409.35z
			 M1316.75,459.61h-78.8l17.71,32.09h81.62L1316.75,459.61z M1167.12,359.13l20.77,32.44h96.21l20.65-32.44H1167.12z"/>
		<path d="M388.48,305.71h-29.89c4.55-0.98,9.58-1.53,15.14-1.53C378.8,304.18,383.71,304.69,388.48,305.71z"/>
		<path class="st0" d="M1039.45,308.55v32.76h75.61v-32.76H1039.45z M1039.45,409.35v32.46h75.61v-32.46H1039.45z M1039.45,459.61
			v32.09h75.61v-32.09H1039.45z M1039.45,359.13v32.44h75.61v-32.44H1039.45z"/>
		<rect x="1039.45" y="246.83" width="75.61" height="44.03"/>
	</g>
	<g>
		<g>
			<path class="st0" d="M174.38,69.6c8.3,13.58,17.09,34.23,21.4,50.91c4.16,16.83,8.4,34.25,9.75,51.94
				c1.49,17.68,1.57,35.53,0.89,53.27c-0.84,17.74-2.7,35.33-5.06,52.77c-1.42,8.65-2.69,17.35-4.44,25.88
				c-0.84,4.27-1.59,8.59-2.52,12.83l-2.84,12.7c-1.86,8.48-4.23,16.72-6.32,25.08c-2.28,8.27-4.71,16.46-7.19,24.61
				c-10.15,32.47-22.26,63.71-36.12,93.35c10.91-31.84,21.32-63.84,30.25-96.52l6.37-24.64c1.88-8.31,4.04-16.51,5.68-24.91
				c3.68-16.64,6.68-33.52,9.19-50.51c4.93-33.97,7.44-68.65,5.84-103.17c-0.78-17.25-4.07-33.66-7.25-50.44
				C188.84,106,181.18,84.53,174.38,69.6z"/>
			<path d="M96.65,63.02c0,0,3.91-16.56,7.5-20.7c3.82-4.4,8.92-8.07,24.1,13.7c12.98,18.61,29.27,13.52,32.68,13.22
				c3.38-0.29,7.83,3.2,9.59,0.64c0.45-0.66,0.76-1.38,1.01-2.06c1.12-2.98,4.14-6.88,6.92-8.44c35.42-19.78,70.08-26.7,96.57-33.39
				c0,0-10.7-7.12-51.09-1.19c-22.72,3.33-31.05-8.02-49.54-20.15c-17-11.16-64.22-6.82-89.85,64.95c0,0-80.48,75.05-56.56,321.96
				c0,0,3.17,37.12,6,60.4c2,16.53-25.53,30.86-25.53,30.86s-18.33,9.58-1.03,8.08c16.57-1.43,44.94-7.91,51.05-8.53
				c0.32-0.03,0.63-0.05,0.96-0.06c2.78-0.09,15.57-1.32,12.15,3.61c-2.62,3.78-5.33,6.25-6.8,7.44c-1.03,0.83-0.82,2.51,0.42,2.96
				c1.63,0.59,4.76,1.04,10.65,0.87c14.74-0.43,81.38,0.04,81.38,0.04s8.75,0.78,1.39-13.32c-7.29-13.94-39.93-18.45-53.06-7.61
				c-0.36,0.3-0.76,0.56-1.21,0.7c-1.82,0.56-8.62-0.27-13.15-9.33c-1.61-3.22-2.86-5.76-3.82-7.74c-2.02-4.16-2.65-8.41-3.03-13.34
				l0.27-49.75c0.01-1.15-0.21-2.28-0.64-3.35l-6.61-16.47c-1.33-3.31-0.54-7.1,2-9.6l17.42-17.16c4.02-3.96,6.36-9.28,6.58-14.91
				c0.66-16.48-0.58-52.94-19.87-89.38c0,0,30.76,47.74,19.86,107.01c0,0-7.52,21.15-3.07,27.98s15.67-1.17,22.93-12.5
				c7.26-11.32,25.84-45.17,26.49-78.5s-10.47-74.12-10.47-74.12l0,0c0,0-0.08-8.23,3.63-23.5c3.61-14.88,12.82-40.37,12.82-40.37
				s10.25-25.2,1.07-54.68c0,0-2.78-5.98,0-7.16c2.78-1.17,1.28-5.77-1.17-7.69c-2.46-1.92-19.54-8.65-18.58-3.2
				c0.96,5.45-3.74,2.24-3.74,2.24s-20.29-13.46-35.56-16.23C97.72,65.26,94.98,64.77,96.65,63.02z"/>
		</g>
		<path d="M100.79,48.7c0,0-6.35,17.58,9.94,18.58c12.29,0.75,39.72,2.18,46.56,13.05c11.17,17.75,1.25,61.78,1.25,61.78
			L90.86,88.68l1.88-25.28L100.79,48.7z"/>
		<path class="st1" d="M233.42,32.39c0,0-34.94,8.39-47.54,17.5c-2.02,1.46-4.62,1.99-7.07,1.53c-2.72-0.51-5.46-3.15,0.47-6.7
			C190.62,37.91,233.42,32.39,233.42,32.39z"/>
		<circle class="st1" cx="163.57" cy="21.76" r="4.58"/>
	</g>
</g>
</svg>
